<svg xmlns="http://www.w3.org/2000/svg" viewBox="0 0 122.88 122.88" xmlnsV="https://vecta.io/nano"><path d="M61.44 0a61.3 61.3 0 0 1 23.5 4.66l.11.05c7.47 3.11 14.2 7.66 19.83 13.3h0c5.66 5.65 10.22 12.42 13.34 19.95 3.01 7.24 4.66 15.18 4.66 23.49a61.3 61.3 0 0 1-4.66 23.5l-.05.11c-3.12 7.47-7.66 14.2-13.3 19.83h0c-5.65 5.66-12.42 10.22-19.95 13.34-7.24 3.01-15.18 4.66-23.49 4.66s-16.25-1.66-23.5-4.66l-.11-.05a61.51 61.51 0 0 1-19.83-13.29l.01-.02A61.65 61.65 0 0 1 4.66 84.94 61.3 61.3 0 0 1 0 61.44a61.3 61.3 0 0 1 4.66-23.5l.05-.11A61.51 61.51 0 0 1 18 18h.01c5.66-5.66 12.42-10.22 19.94-13.34A61.21 61.21 0 0 1 61.44 0h0zM16.99 94.47l.24-.14c5.9-3.29 21.26-4.38 27.64-8.83.47-.7.97-1.72 1.46-2.83.73-1.67 1.4-3.5 1.82-4.74-1.78-2.1-3.31-4.47-4.77-6.8l-4.83-7.69c-1.76-2.64-2.68-5.04-2.74-7.02-.03-.93.13-1.77.48-2.52.36-.78.91-1.43 1.66-1.93a4.94 4.94 0 0 1 1.17-.59 121.67 121.67 0 0 1-.23-13.82 19.15 19.15 0 0 1 .59-3.13c1.24-4.41 4.33-7.96 8.16-10.4 2.11-1.35 4.43-2.36 6.84-3.04 1.54-.44-1.31-5.34.28-5.51 7.67-.79 20.08 6.22 25.44 12.01 2.68 2.9 4.37 6.75 4.73 11.84l-.3 12.54h0c1.34.41 2.2 1.26 2.54 2.63.39 1.53-.03 3.67-1.33 6.6h0c-.02.05-.05.11-.08.16l-5.51 9.07c-2.02 3.33-4.08 6.68-6.75 9.31l.74 1.06c1.09 1.6 2.19 3.2 3.6 4.63a.79.79 0 0 1 .12.15c6.34 4.48 21.77 5.57 27.69 8.87l.24.14a55.08 55.08 0 0 0 10.93-33.03c0-15.29-6.2-29.14-16.22-39.15A55.1 55.1 0 0 0 61.46 6.08c-15.29 0-29.14 6.2-39.15 16.22-10.04 10-16.24 23.85-16.24 39.14a55.14 55.14 0 0 0 10.92 33.03h0 0z"/></svg>