<?xml version="1.0" encoding="utf-8"?><svg version="1.1" id="Layer_1" xmlns="http://www.w3.org/2000/svg" xmlns:xlink="http://www.w3.org/1999/xlink" x="0px" y="0px" width="128.889px" height="116.15px" viewBox="0 0 128.889 116.15" enable-background="new 0 0 128.889 116.15" xml:space="preserve"><g><path fill="none" stroke="#000000" stroke-width="6.0092" stroke-linecap="round" stroke-linejoin="round" stroke-miterlimit="2.6131" d="M4.213,3.005c-0.328,0-0.614,0.103-0.84,0.348c-0.246,0.246-0.368,0.532-0.368,0.84v28.446c0,0.308,0.122,0.573,0.368,0.778 c0.226,0.205,0.512,0.308,0.84,0.308h120.463c0.328,0,0.614-0.103,0.84-0.308c0.246-0.205,0.368-0.471,0.368-0.778V4.192 c0-0.308-0.122-0.594-0.368-0.84c-0.226-0.245-0.512-0.348-0.84-0.348H4.213L4.213,3.005z M10.213,33.798 c-0.235,0-0.471,0.103-0.675,0.307c-0.185,0.205-0.287,0.44-0.287,0.656v77.442c0,0.216,0.103,0.451,0.287,0.655 c0.204,0.206,0.43,0.287,0.675,0.287h108.462c0.246,0,0.472-0.081,0.676-0.287c0.185-0.204,0.287-0.43,0.287-0.655V34.761 c0-0.226-0.103-0.451-0.287-0.656c-0.204-0.204-0.439-0.307-0.676-0.307H10.213L10.213,33.798z M47.999,52.228H80.89 c1.762,0,3.257,0.614,4.485,1.844c1.249,1.249,1.863,2.744,1.863,4.505l0,0c0,1.761-0.614,3.277-1.863,4.567 c-1.229,1.27-2.725,1.925-4.485,1.925H47.999c-1.761,0-3.257-0.655-4.485-1.925c-1.249-1.29-1.863-2.807-1.863-4.567l0,0 c0-1.761,0.614-3.256,1.863-4.505C44.742,52.842,46.237,52.228,47.999,52.228L47.999,52.228z"/></g></svg>