<svg xmlns="http://www.w3.org/2000/svg" viewBox="0 0 122.88 120.54" xmlnsV="https://vecta.io/nano"><path d="M95.7 65.5c15.01 0 27.18 12.17 27.18 27.18s-12.17 27.18-27.18 27.18-27.18-12.17-27.18-27.18S80.69 65.5 95.7 65.5h0zM17.69 26.67c8.1 2.71 19.38 4.38 31.91 4.38s23.81-1.67 31.91-4.38c7.11-2.37 11.51-5.25 11.51-8.06s-4.4-5.69-11.51-8.06c-8.1-2.7-19.38-4.38-31.91-4.38s-23.81 1.67-31.91 4.38c-15.09 5.04-15.51 10.95 0 16.12h0zM6.24 47.86c.56 2.62 4.83 5.26 11.45 7.47 8.1 2.71 19.38 4.38 31.91 4.38s23.81-1.67 31.91-4.38c7.11-2.37 11.51-5.25 11.51-8.06h.03v-19.3c-2.53 1.73-5.78 3.26-9.59 4.53-8.73 2.91-20.71 4.72-33.86 4.72-13.16 0-25.13-1.8-33.86-4.72-3.77-1.26-6.98-2.76-9.49-4.47v19.83h-.01zm105.23 41.78v6.07c0 1.24-1.01 2.25-2.25 2.25h-8.24v8.24c0 1.24-1.01 2.25-2.25 2.25h-6.07c-1.24 0-2.25-1.01-2.25-2.25v-8.24h-8.24c-1.24 0-2.25-1.01-2.25-2.25v-6.07c0-1.24 1.01-2.25 2.25-2.25h8.24v-8.24c0-1.24 1.01-2.25 2.25-2.25h6.07c1.24 0 2.25 1.01 2.25 2.25v8.24h8.24a2.26 2.26 0 0 1 2.25 2.25h0zm-48.17 2.9c-4.35.44-8.95.67-13.7.67-13.16 0-25.13-1.8-33.86-4.72-3.77-1.26-6.98-2.76-9.49-4.47v18.49c.56 2.62 4.83 5.26 11.45 7.47 8.1 2.7 19.38 4.38 31.91 4.38 7.52 0 14.58-.6 20.78-1.67 1.56 1.94 3.33 3.7 5.29 5.24-7.53 1.65-16.49 2.6-26.07 2.6-13.16 0-25.13-1.8-33.86-4.72-4.6-1.54-15.67-6.58-15.67-12.62v-1.98L0 18.61c0-5.76 6.01-10.65 15.73-13.9C24.46 1.8 36.44 0 49.6 0s25.13 1.8 33.86 4.72c8.85 2.95 14.62 7.27 15.59 12.37.12.32.18.67.18 1.04V60.5a31.56 31.56 0 0 0-3.66-.21c-.85 0-1.68.03-2.51.1v-3.74c-2.53 1.73-5.78 3.26-9.59 4.53-8.73 2.91-20.71 4.72-33.86 4.72-13.16 0-25.13-1.8-33.86-4.72-3.77-1.26-6.98-2.76-9.49-4.47V75.2c.56 2.62 4.83 5.26 11.45 7.47 8.1 2.7 19.38 4.38 31.91 4.38 5.01 0 9.82-.27 14.31-.76a30.6 30.6 0 0 0-.63 6.25h0z" fill-rule="evenodd"/></svg>