<svg xmlns="http://www.w3.org/2000/svg" width="122.879" height="122.879" xmlnsV="https://vecta.io/nano"><path fill-rule="evenodd" fill="#ff4141" d="M61.44 0c33.933 0 61.439 27.507 61.439 61.439s-27.506 61.439-61.439 61.439S0 95.372 0 61.439 27.507 0 61.44 0h0zm12.011 39.151a7.01 7.01 0 0 1 9.986-.027c2.764 2.776 2.775 7.292.027 10.083L71.4 61.445l12.076 12.249c2.729 2.77 2.689 7.257-.08 10.022s-7.23 2.758-9.955-.013L61.446 71.54 49.428 83.728a7.01 7.01 0 0 1-9.986.027c-2.763-2.776-2.776-7.293-.027-10.084L51.48 61.434 39.403 49.185c-2.728-2.769-2.689-7.256.082-10.022s7.229-2.758 9.953.013l11.997 12.165 12.016-12.19h0z"/></svg>