<svg xmlns="http://www.w3.org/2000/svg" viewBox="0 0 88.47 122.88" xmlnsV="https://vecta.io/nano"><path d="M11.86 68.08L7.62 92.09c-.07.33-.2.63-.4.86-1.51 1.95-2.46 3.62-2.74 4.97-.2 1 0 1.8.67 2.43l16.56 16.56a7.04 7.04 0 0 0 3.74 1.91c1.6.3 3.46.13 5.6-.45.03 0 .08-.02.12-.02l2.89-.73c4.44-1.08 8.31-2.03 11.91-5.29l4.62-4.82c.05-.08.12-.15.18-.22l1.13-1.1c3.16-3.09 7.07-6.9 4.69-10.24l-1.85-1.85c-.9.86-1.85 1.71-2.76 2.53-.83.73-1.61 1.41-2.33 2.13-.76.76-2 .76-2.76 0-.76-.77-.76-2 0-2.76.71-.72 1.6-1.5 2.51-2.31 3.13-2.76 6.72-5.92 4.79-8.68l-1.83-1.83c-.1-.1-.18-.22-.27-.33-1.05 1.08-2.21 2.11-3.34 3.11-.83.73-1.61 1.41-2.33 2.13-.77.77-2 .77-2.76 0a1.94 1.94 0 0 1 0-2.76c.71-.71 1.6-1.5 2.51-2.31 3.13-2.76 6.72-5.92 4.79-8.68l-1.83-1.83c-.13-.13-.23-.27-.32-.42l-5.37 5.37c-.77.76-2 .76-2.76 0-.76-.77-.76-2 0-2.76l10.07-10.07c2.41-2.41 2.96-4.92 2.33-6.82-.23-.7-.62-1.31-1.1-1.8a4.53 4.53 0 0 0-.84-.66h-.01c-.15.07-.26-.08-.4-.22-.17-.08-.36-.16-.54-.22-1.67-.55-3.84-.16-6.04 1.69-.03.03-.06.06-.09.08-.24.2-.48.42-.72.66l-20.9 20.93c-.76.76-2 .76-2.76 0a1.94 1.94 0 0 1-.18-2.55l-7.64-7.64h0zm13.22 2.03l.67-.67 13.79-13.79c-1.43-.66-2.76-1.59-3.94-2.77-5.25-5.25-5.25-13.73 0-18.98s13.73-5.25 18.98 0 5.25 13.73 0 18.98l-.13.13c.1.09.21.19.31.29.43.43.8.9 1.13 1.4l17.1-17.1c-2.62-2.62-2.62-6.9 0-9.53L60.25 15.33c-2.62 2.62-6.9 2.62-9.53 0L15.28 50.77c2.62 2.62 2.62 6.9 0 9.53l9.8 9.81h0zm30.06-4.54c-.46.64-.99 1.28-1.62 1.9l-2 2-.02-.05c.15.08.28.18.42.32l1.91 1.91c.1.1.2.23.28.35 2.15 2.94 1.81 5.57.35 7.97.27.1.52.25.71.45l1.91 1.91c.1.1.2.23.28.35 2.31 3.18 1.73 5.95 0 8.48a1.37 1.37 0 0 1 .23.2l1.91 1.91c.1.1.2.23.28.35 4.44 6.07-.85 11.22-5.1 15.38l-1.1 1.1-4.74 4.97-.15.15c-4.34 3.94-8.65 4.99-13.62 6.2l-2.84.71c-.03 0-.05.02-.08.02-2.69.73-5.14.91-7.33.52-2.23-.4-4.16-1.4-5.77-2.98L2.52 103.15C.84 101.54.28 99.54.74 97.18c.37-1.9 1.46-3.99 3.19-6.25l4.42-25.04v-.1a20.16 20.16 0 0 1 .17-1.04L0 56.23 56.23 0l32.24 32.24-33.33 33.33h0z"/></svg>