<svg xmlns="http://www.w3.org/2000/svg" width="91.839" height="122.88" xmlnsV="https://vecta.io/nano"><path d="M81.75 64.617H41.365c-1.738 0-3.147-1.423-3.147-3.178s1.409-3.179 3.147-3.179h40.383L68.559 43.155a3.19 3.19 0 0 1 .271-4.469c1.297-1.159 3.278-1.037 4.425.273l17.798 20.383c1.065 1.216 1.037 3.029-.011 4.21L73.254 83.92a3.11 3.11 0 0 1-4.425.273c-1.296-1.158-1.417-3.16-.271-4.47L81.75 64.617h0zM70.841 99.629a3.18 3.18 0 0 1 3.178-3.179 3.18 3.18 0 0 1 3.179 3.179v14.242c0 2.475-1.017 4.729-2.648 6.36s-3.887 2.648-6.36 2.648H9.009a8.99 8.99 0 0 1-6.363-2.646A8.98 8.98 0 0 1 0 113.871V9.009c0-2.48 1.013-4.733 2.644-6.365S6.528 0 9.009 0h59.18c2.479 0 4.731 1.016 6.362 2.646s2.646 3.889 2.646 6.363V23.25a3.18 3.18 0 0 1-3.179 3.178 3.18 3.18 0 0 1-3.178-3.178V9.009c0-.722-.301-1.385-.785-1.869a2.64 2.64 0 0 0-1.867-.783H9.009a2.64 2.64 0 0 0-1.87.782c-.483.481-.782 1.144-.782 1.87v104.862a2.64 2.64 0 0 0 .783 1.867c.484.484 1.147.785 1.869.785h59.18a2.64 2.64 0 0 0 2.652-2.652V99.629h0z"/></svg>