<svg xmlns="http://www.w3.org/2000/svg" viewBox="0 0 97.92 122.88" xmlnsV="https://vecta.io/nano"><path d="M68.17.66C67.73.26 67.11 0 66.5 0c-.13 0-.26 0-.4.04H5.54c-1.49 0-2.9.62-3.91 1.63S0 4.04 0 5.58v111.76c0 1.54.62 2.9 1.63 3.91s2.37 1.63 3.91 1.63H92.3c1.54 0 2.9-.62 3.91-1.63s1.63-2.37 1.63-3.91V32.3c.04-.22.09-.4.09-.62 0-.75-.35-1.41-.84-1.89L68.47.84c-.09-.09-.13-.13-.22-.18h-.08 0zM20.53 19.68c-1.36 0-2.5 1.1-2.5 2.51a2.5 2.5 0 0 0 2.5 2.5h17.15a2.51 2.51 0 0 0 2.51-2.5c0-1.36-1.1-2.51-2.51-2.51H20.53h0zm18.6 63.67h-8.88v-1.47c0-1.57-.11-2.59-.31-3.07-.2-.49-.64-.73-1.31-.73-.54 0-.95.21-1.22.62-.27.43-.41 1.05-.41 1.89 0 1.39.28 2.37.83 2.92.54.56 2.14 1.64 4.79 3.25l4.61 3.13c.82.73 1.51 1.75 2.07 3.08s.85 2.98.85 4.96c0 3.16-.76 5.65-2.28 7.45s-3.82 2.91-6.86 3.34v3.33h-4.1v-3.42c-2.37-.23-4.45-1.15-6.22-2.74-1.77-1.58-2.66-4.36-2.66-8.32v-1.74h8.88V98c0 2.39.09 3.87.28 4.45.18.58.62.86 1.32.86.6 0 1.05-.2 1.34-.6.29-.41.44-1.01.44-1.8 0-1.99-.14-3.42-.42-4.27-.28-.86-1.22-1.8-2.85-2.8l-5.53-3.75c-.97-.8-1.82-1.92-2.52-3.38-.71-1.45-1.07-3.09-1.07-4.92 0-2.65.75-4.73 2.25-6.24s3.76-2.44 6.76-2.79v-2.84h4.1v2.84c2.74.35 4.79 1.27 6.16 2.76 1.36 1.49 2.04 3.55 2.04 6.17.01.36-.02.92-.08 1.66h0zM63.99 5.01v21.67c0 2.07.84 3.96 2.2 5.32s3.25 2.2 5.32 2.2h21.27v83.15c0 .13-.04.31-.18.4-.09.09-.22.18-.4.18H5.49c-.13 0-.31-.04-.4-.18-.09-.09-.18-.26-.18-.4V5.58c0-.18.04-.31.18-.4.09-.09.22-.18.4-.18h58.45.05v.01zm4.97 21.67V8.53l20.44 20.7H71.51c-.7 0-1.32-.31-1.8-.75-.45-.44-.75-1.1-.75-1.8h0zM20.52 36.96c-1.36 0-2.5 1.1-2.5 2.51a2.51 2.51 0 0 0 2.5 2.51h43.86c1.36 0 2.51-1.1 2.51-2.51 0-1.36-1.1-2.51-2.51-2.51H20.52h0zM49 70.36c-1.36 0-2.5 1.1-2.5 2.51a2.51 2.51 0 0 0 2.5 2.51h28.22c1.36 0 2.51-1.1 2.51-2.51 0-1.36-1.1-2.51-2.51-2.51H49h0zm-28.48-16.7c-1.36 0-2.5 1.1-2.5 2.51a2.51 2.51 0 0 0 2.5 2.51h56.69c1.36 0 2.51-1.1 2.51-2.51 0-1.36-1.1-2.51-2.51-2.51H20.52h0z"/></svg>