<svg xmlns="http://www.w3.org/2000/svg" viewBox="0 0 94.16 122.88" xmlnsV="https://vecta.io/nano"><path d="M35 108h-.35H6.1a6.12 6.12 0 0 1-4.3-1.8 6 6 0 0 1-1.8-4.3V6.1a6 6 0 0 1 1.8-4.3A6 6 0 0 1 6.1 0h74.47a6.12 6.12 0 0 1 4.29 1.8 6 6 0 0 1 1.81 4.3v57.66l-4.34-5.16a5.86 5.86 0 0 0-.82-.83V42.24H5.24v59.85a.81.81 0 0 0 .26.6.77.77 0 0 0 .6.25l26.71-.08a6.17 6.17 0 0 0 1.45 4.21l.74.93zm58.91-16.4l-38.28 31.28L39 103.09l2.27-2.48L53.48 115l.15.19a3.24 3.24 0 0 0 4.57.35l1.25-1.08h0l5.91-5.16 26-20.72 2.51 3zm.22-9.3l-38.31 31.3-16.61-19.8 38.31-31.29 16.64 19.78zm-22.31 4.84a5.88 5.88 0 1 1-7-4.44 5.88 5.88 0 0 1 7 4.44zm13.44-2.5l-25.55 20.55a3.85 3.85 0 0 0-5.39-.46l-6.58-7.82a3.81 3.81 0 0 0 .46-5.37L73.76 71a3.83 3.83 0 0 0 5.38.46l6.59 7.82a3.83 3.83 0 0 0-.47 5.39zM70.61 50.8v3.71a.27.27 0 0 1-.28.29H49a.27.27 0 0 1-.28-.29V50.8a.27.27 0 0 1 .28-.29h21.33a.27.27 0 0 1 .28.29zm-8 9.49V64a.27.27 0 0 1-.29.28H49.05a.27.27 0 0 1-.29-.28v-3.71a.27.27 0 0 1 .29-.28h13.3a.31.31 0 0 1 .29.28zm-34.54-46h5.48a.33.33 0 0 1 .35.35v19.14a.33.33 0 0 1-.35.34H28.1a.32.32 0 0 1-.34-.34V14.64a.32.32 0 0 1 .34-.35zm12.49 7.28h5.48a.32.32 0 0 1 .35.34v11.8a.33.33 0 0 1-.35.34h-5.45a.33.33 0 0 1-.34-.34v-11.8a.36.36 0 0 1 .34-.34zm25 0h5.48a.32.32 0 0 1 .34.34v11.8a.33.33 0 0 1-.34.34h-5.45a.33.33 0 0 1-.35-.34v-11.8a.37.37 0 0 1 .35-.34zm-12.5-7.28h5.48a.33.33 0 0 1 .35.35v19.14a.33.33 0 0 1-.35.34h-5.45a.33.33 0 0 1-.35-.34V14.64a.33.33 0 0 1 .35-.35zm-37.44 2.63h5.47a.33.33 0 0 1 .35.35v16.51a.33.33 0 0 1-.35.34h-5.47a.33.33 0 0 1-.35-.34V17.27c-.07-.21.14-.35.35-.35zM28.3 66.26l11.63.21a12.42 12.42 0 0 1-5.47 10.32L28.3 66.26zm-.64-3.56l-.14-13.54v-.89l.9.07h0a16.32 16.32 0 0 1 3.21.55 15.36 15.36 0 0 1 2.94 1.16 15.57 15.57 0 0 1 8.28 13l.07.89H42l-13.48-.41h-.72l-.14-.82zm1.65-.82l11.83.34a14 14 0 0 0-7.32-10.8 14.92 14.92 0 0 0-3.94-1.34c-.24 0-.47-.08-.71-.1l.14 11.9zm-4.91 3.17L31 76.54a13.43 13.43 0 0 1-6.64 1.78 13.28 13.28 0 0 1-.55-26.54l.55 13.27zm57.11-27.2V6.1a.77.77 0 0 0-.25-.6.81.81 0 0 0-.6-.26H6.1a.78.78 0 0 0-.6.26.66.66 0 0 0-.26.6v31.75z" fill-rule="evenodd"/></svg>